<svg width="162" height="63" viewBox="0 0 162 63" fill="none" xmlns="http://www.w3.org/2000/svg">
<g clip-path="url(#clip0_2709_59319)">
<path fill-rule="evenodd" clip-rule="evenodd" d="M89.9553 29.9067C88.8199 27.5637 86.76 25.9109 83.3517 25.9109C78.6334 25.9109 75.3316 29.7256 75.3316 35.2167C75.3316 40.9143 78.5034 44.5246 83.2133 44.5246C86.4873 44.5246 88.6559 43.0038 89.8914 40.45L86.8495 38.6459C85.8951 40.2455 84.9323 40.9399 83.3176 40.9399C80.6102 40.9399 79.0381 38.4649 79.0381 35.2167C79.0381 31.8663 80.5846 29.4935 83.2985 29.4935C84.9217 29.4935 85.9527 30.2155 86.5981 31.453L89.9553 29.9067Z" fill="#1B8401"/>
<path fill-rule="evenodd" clip-rule="evenodd" d="M102.434 37.4872C102.434 33.6192 100.344 30.4221 96.7356 30.4221C93.306 30.4221 90.7008 33.3359 90.7008 37.4872C90.7008 41.7663 93.1782 44.5161 97.0701 44.5161C98.8765 44.5161 100.836 43.7152 101.918 42.3243L99.392 40.2114C99.0956 40.527 98.735 40.7753 98.3344 40.9396C97.9338 41.1038 97.5027 41.1802 97.0701 41.1635C95.7813 41.1635 94.4159 40.467 94.2859 38.6076H102.381C102.417 38.2352 102.435 37.8613 102.434 37.4872ZM98.9787 35.9387H94.337C94.467 34.5713 95.2658 33.5148 96.5546 33.5148C98.1543 33.5127 98.8765 34.7268 98.9787 35.9387Z" fill="#1B8401"/>
<path fill-rule="evenodd" clip-rule="evenodd" d="M116.225 44.2392V36.6097C116.225 32.7928 114.678 30.4221 111.221 30.4221C109.804 30.4221 108.665 30.9631 108.051 31.6085V30.7054H104.492V44.2392H108.051V36.8418C108.051 34.4989 108.903 33.7747 110.371 33.7747C111.839 33.7747 112.665 34.4946 112.665 36.9206V44.2392H116.225Z" fill="#1B8401"/>
<path fill-rule="evenodd" clip-rule="evenodd" d="M127.235 40.09C126.358 40.8376 125.868 41.1209 125.222 41.1209C124.37 41.1209 123.908 40.7865 123.908 39.4958V34.0558H127.157V30.7054H123.908V25.4465L120.355 27.225V30.7054H118.082V34.0558H120.355V40.4457C120.355 42.8185 121.774 44.5203 123.964 44.5203C125.073 44.5203 126.13 44.1582 126.733 43.6939L127.235 40.09Z" fill="#1B8401"/>
<path fill-rule="evenodd" clip-rule="evenodd" d="M138.888 31.3828C138.555 31.0657 138.163 30.8179 137.733 30.6541C137.304 30.4902 136.846 30.4136 136.387 30.4286C135.866 30.4215 135.349 30.5234 134.869 30.7277C134.39 30.932 133.958 31.2342 133.603 31.615V30.7119H130.045V44.2457H133.603V36.9207C133.603 34.5778 134.506 33.9793 135.897 33.9793C136.67 34.0013 137.407 34.3147 137.959 34.8568L138.888 31.3828Z" fill="#1B8401"/>
<path fill-rule="evenodd" clip-rule="evenodd" d="M151.187 44.2392V35.1634C151.187 32.124 148.97 30.4221 145.693 30.4221C143.502 30.4221 142.187 30.8865 140.615 31.7874L141.981 34.2646C143.218 33.5936 144.07 33.3615 145.693 33.3615C146.972 33.3615 147.628 34.1346 147.628 35.0867V35.7577C146.816 35.3714 145.923 35.1859 145.025 35.2167C141.955 35.2167 139.527 36.7076 139.527 39.7045C139.527 42.9782 142.055 44.5246 144.582 44.5246C145.845 44.5246 146.978 44.0091 147.623 43.3382V44.2392H151.187ZM147.621 40.2711C147.236 40.9101 146.307 41.5064 145.146 41.5064C143.625 41.5064 143.084 40.6545 143.084 39.7045C143.084 38.6203 143.806 38.0005 145.146 38.0005C146.409 38.0005 147.004 38.1816 147.621 38.5692V40.2711Z" fill="#1B8401"/>
<path fill-rule="evenodd" clip-rule="evenodd" d="M158.198 44.2394V25.4446L154.64 27.2231V44.2394H158.198Z" fill="#1B8401"/>
<path d="M79.7453 4.70728H76.1347V22.7544H79.7453V4.70728Z" fill="#1B8401"/>
<path fill-rule="evenodd" clip-rule="evenodd" d="M93.7427 22.7545V3.95972L90.1853 5.74036V10.0003C89.3942 9.30575 88.3751 8.92666 87.3224 8.93531C83.9716 8.93531 82.063 11.7703 82.063 15.8172C82.063 20.8716 84.436 23.0378 87.3224 23.0378C88.3866 23.0384 89.4108 22.6323 90.1853 21.9025V22.7545H93.7427ZM90.1853 18.5521C89.6698 19.223 89.1032 19.6874 87.9934 19.6874C86.6002 19.6874 85.6736 18.5265 85.6736 15.7427C85.6736 13.4743 86.4213 12.2879 87.7867 12.2879C88.251 12.2702 88.7126 12.3668 89.1308 12.5692C89.549 12.7716 89.9111 13.0736 90.1853 13.4487V18.5521Z" fill="#1B8401"/>
<path fill-rule="evenodd" clip-rule="evenodd" d="M107.738 22.7543V13.6807C107.738 10.637 105.52 8.93726 102.246 8.93726C100.054 8.93726 98.7401 9.39946 97.1659 10.3026L98.5335 12.7776C99.7711 12.1066 100.621 11.8766 102.246 11.8766C103.535 11.8766 104.178 12.6498 104.178 13.6019V14.2728C103.367 13.8866 102.474 13.701 101.575 13.7318C98.5079 13.7318 96.0838 15.2228 96.0838 18.2175C96.0838 21.4913 98.6102 23.0397 101.137 23.0397C102.4 23.0397 103.535 22.5243 104.178 21.8533V22.7543H107.738ZM104.178 18.7841C103.793 19.4231 102.864 20.0216 101.705 20.0216C100.184 20.0216 99.6412 19.1696 99.6412 18.2175C99.6412 17.1334 100.363 16.5135 101.705 16.5135C102.969 16.5135 103.561 16.6946 104.178 17.0801V18.7841Z" fill="#1B8401"/>
<path fill-rule="evenodd" clip-rule="evenodd" d="M122.272 22.7545V15.1228C122.272 11.3081 120.724 8.94596 117.268 8.94596C115.85 8.94596 114.712 9.48697 114.099 10.1302V3.95972L110.556 5.74036V22.7545H114.116V15.355C114.116 13.0121 114.968 12.2879 116.435 12.2879C117.903 12.2879 118.73 13.0099 118.73 15.4338V22.7545H122.272Z" fill="#1B8401"/>
<path fill-rule="evenodd" clip-rule="evenodd" d="M136.64 16.0002C136.64 11.8489 134.037 8.93726 130.503 8.93726C126.969 8.93726 124.402 11.8489 124.402 16.0002C124.402 20.1515 126.98 23.0397 130.512 23.0397C134.044 23.0397 136.64 20.1515 136.64 16.0002ZM133.032 16.0002C133.032 17.8831 132.205 19.6105 130.503 19.6105C128.801 19.6105 128.002 18.0897 128.002 16.0002C128.002 13.9107 128.803 12.3644 130.503 12.3644C132.203 12.3644 133.032 13.9384 133.032 16.0002Z" fill="#1B8401"/>
<path fill-rule="evenodd" clip-rule="evenodd" d="M81.5517 52.4076C81.0852 51.4428 80.2374 50.7676 78.8379 50.7676C76.8973 50.7676 75.5403 52.3352 75.5403 54.5909C75.5403 56.9338 76.844 58.4248 78.7846 58.4248C80.1309 58.4248 81.0213 57.8007 81.5304 56.7506L80.28 56.0073C79.8859 56.6633 79.4961 56.9509 78.8272 56.9509C77.7131 56.9509 77.0677 55.9327 77.0677 54.5972C77.0677 53.2213 77.7067 52.2543 78.8166 52.2543C79.0972 52.2379 79.3764 52.3059 79.6182 52.4493C79.86 52.5928 80.0533 52.8052 80.1735 53.0594L81.5517 52.4076Z" fill="#1B8401"/>
<path fill-rule="evenodd" clip-rule="evenodd" d="M89.427 58.2588L88.0062 55.3748C88.9498 55.0042 89.427 54.3098 89.427 53.1916C89.427 51.6133 88.2703 50.8486 86.8708 50.8486H83.4156V58.2673H84.9067V55.5857H86.3979L87.7228 58.2588H89.427ZM87.8996 53.2235C87.8996 53.8625 87.529 54.1884 86.8346 54.1884H84.8961V52.2714H86.8346C87.497 52.28 87.8996 52.5569 87.8996 53.2235Z" fill="#1B8401"/>
<path fill-rule="evenodd" clip-rule="evenodd" d="M96.8932 58.2565V56.8039H93.0674V55.0147H95.1976V53.5728H93.0674V52.2905H96.7335V50.8379H91.5827V58.2565H96.8932Z" fill="#1B8401"/>
<path fill-rule="evenodd" clip-rule="evenodd" d="M104.973 54.5484C104.973 51.8348 103.405 50.8401 101.286 50.8401H98.9638V58.2588H101.183C103.088 58.2588 104.973 57.1554 104.973 54.5484ZM103.448 54.5484C103.448 55.903 102.736 56.8168 101.179 56.8168H100.449V52.2799H101.232C102.8 52.2799 103.448 53.034 103.448 54.5484Z" fill="#1B8401"/>
<path d="M108.748 50.8379H107.263V58.2565H108.748V50.8379Z" fill="#1B8401"/>
<path fill-rule="evenodd" clip-rule="evenodd" d="M116.625 52.3012V50.8379H110.88V52.3012H113.01V58.2565H114.495V52.3012H116.625Z" fill="#1B8401"/>
<path fill-rule="evenodd" clip-rule="evenodd" d="M129.862 55.0253V50.8826H128.371V55.0488C128.371 56.2352 127.787 56.9657 126.846 56.9657C125.904 56.9657 125.329 56.2139 125.329 55.0253V50.8826H123.838V55.0488C123.838 57.2085 125.046 58.4184 126.837 58.4184C128.739 58.4184 129.862 57.1787 129.862 55.0253Z" fill="#1B8401"/>
<path fill-rule="evenodd" clip-rule="evenodd" d="M138.323 58.3012V50.8826H136.862V54.02C136.862 54.4311 136.883 55.3661 136.883 55.6409C136.787 55.4492 136.544 55.0786 136.363 54.8038L133.735 50.8826H132.314V58.3012H133.775V55.036C133.775 54.6228 133.754 53.6899 133.754 53.4151C133.85 53.6068 134.093 53.9774 134.274 54.2522L136.996 58.2991L138.323 58.3012Z" fill="#1B8401"/>
<path d="M142.311 50.8806H140.828V58.3014H142.311V50.8806Z" fill="#1B8401"/>
<path fill-rule="evenodd" clip-rule="evenodd" d="M150.52 54.5802C150.52 52.1861 149.195 50.7676 147.266 50.7676C145.336 50.7676 143.979 52.2074 143.979 54.6015C143.979 56.9956 145.304 58.4184 147.244 58.4184C149.185 58.4184 150.52 56.9764 150.52 54.5802ZM148.993 54.6015C148.993 56.1074 148.305 56.9445 147.266 56.9445C146.226 56.9445 145.506 56.0925 145.506 54.5802C145.506 53.0679 146.196 52.2372 147.234 52.2372C148.271 52.2372 148.993 53.1084 148.993 54.5994V54.6015Z" fill="#1B8401"/>
<path fill-rule="evenodd" clip-rule="evenodd" d="M158.093 58.3012V50.8826H156.63V54.02C156.63 54.4311 156.651 55.3661 156.651 55.6409C156.555 55.4492 156.312 55.0786 156.131 54.8038L153.503 50.8826H152.082V58.3012H153.545V55.036C153.545 54.6228 153.524 53.6899 153.524 53.4151C153.62 53.6068 153.863 53.9774 154.044 54.2522L156.768 58.2991L158.093 58.3012Z" fill="#1B8401"/>
<path d="M25.6133 11.3761C23.9285 12.1479 22.3528 13.1383 20.9269 14.3218L0 35.2359L4.30296 35.2743L29.6521 10.0278C28.2634 10.3386 26.9101 10.7903 25.6133 11.3761Z" fill="#1B8401"/>
<path d="M38.4902 9.79779C37.9236 9.68916 37.3548 9.60822 36.786 9.54858L1.06509 45.2638H5.53847L40.5139 10.2962C39.8535 10.0974 39.1789 9.93127 38.4902 9.79779Z" fill="#1B8401"/>
<path d="M27.835 62.9999L32.2658 62.9786L51.6504 43.5789C53.5182 41.1932 54.8126 38.4101 55.4336 35.4446L27.835 62.9999Z" fill="#1B8401"/>
<path d="M45.196 12.2898L4.63525 52.8166H9.1278L47.8587 14.1024C47.0183 13.4316 46.1282 12.8257 45.196 12.2898Z" fill="#1B8401"/>
<path d="M10.4507 58.1374L14.924 58.1481L53.0308 20.043C52.4904 19.115 51.8793 18.2298 51.2031 17.3955L10.4507 58.1374Z" fill="#1B8401"/>
<path d="M18.1832 61.5431H22.6566L55.7957 28.4009C55.6533 27.142 55.3996 25.8982 55.0374 24.6841L18.1832 61.5431Z" fill="#1B8401"/>
<path d="M40.7673 0.00425921L13.4393 27.3232C13.1823 28.8839 13.098 30.4682 13.1879 32.0474L45.2428 0L40.7673 0.00425921Z" fill="#1B8401"/>
<path d="M50.4021 1.50158L14.2594 37.6236C14.6219 38.7009 15.0693 39.7479 15.5972 40.7546L54.8861 1.49731L50.4021 1.50158Z" fill="#1B8401"/>
<path d="M62.5548 22.731L33.12 52.1585C34.6848 52.2627 36.2562 52.1956 37.8064 51.9583L67.0282 22.7331L62.5548 22.731Z" fill="#1B8401"/>
<path d="M61.8774 12.292L53.4163 20.733L24.4566 49.6856C25.4564 50.221 26.4979 50.6748 27.5709 51.0424L54.7733 23.8619L66.3252 12.3176L61.8774 12.292Z" fill="#1B8401"/>
<path d="M58.2114 4.82655L18.3004 44.7378C18.654 45.151 19.0267 45.5514 19.4166 45.9433C19.8064 46.3352 20.1515 46.6505 20.5306 46.9806L62.689 4.80737L58.2114 4.82655Z" fill="#1B8401"/>
<path d="M162 26.697C162.002 26.8795 161.967 27.0605 161.898 27.2295C161.832 27.3887 161.735 27.5332 161.613 27.6546C161.491 27.776 161.346 27.8719 161.186 27.9366C161.017 28.0056 160.835 28.0404 160.652 28.0388C160.47 28.0408 160.289 28.006 160.121 27.9366C159.962 27.8718 159.817 27.7763 159.695 27.6555C159.573 27.5345 159.477 27.3894 159.414 27.2295C159.278 26.8874 159.278 26.5065 159.414 26.1645C159.477 26.0045 159.573 25.8594 159.695 25.7385C159.817 25.6177 159.962 25.5221 160.121 25.4573C160.29 25.3897 160.47 25.3556 160.652 25.3572C160.835 25.3561 161.016 25.3901 161.186 25.4573C161.346 25.5221 161.491 25.618 161.613 25.7394C161.735 25.8608 161.832 26.0053 161.898 26.1645C161.967 26.3335 162.001 26.5145 162 26.697ZM161.698 26.697C161.701 26.5511 161.674 26.4061 161.619 26.271C161.57 26.1472 161.498 26.0343 161.406 25.9387C161.311 25.8462 161.199 25.7738 161.076 25.7257C160.94 25.6708 160.795 25.6433 160.65 25.6448C160.503 25.6428 160.359 25.6703 160.223 25.7257C160.101 25.7733 159.989 25.8458 159.895 25.9387C159.804 26.0349 159.732 26.1477 159.682 26.271C159.629 26.4066 159.603 26.5513 159.606 26.697C159.603 26.8426 159.63 26.9873 159.682 27.123C159.731 27.2472 159.803 27.3607 159.895 27.4574C159.99 27.5495 160.101 27.6219 160.223 27.6704C160.359 27.7258 160.503 27.7533 160.65 27.7513C160.795 27.7528 160.94 27.7253 161.076 27.6704C161.198 27.6214 161.31 27.549 161.406 27.4574C161.499 27.3614 161.571 27.2476 161.619 27.123C161.673 26.9877 161.7 26.8428 161.698 26.697ZM161.31 26.403C161.317 26.5067 161.29 26.6099 161.233 26.697C161.181 26.7623 161.113 26.8129 161.035 26.8439L161.323 27.4169H160.897L160.641 26.8929H160.466V27.4169H160.083V25.9259H160.782C160.854 25.925 160.926 25.935 160.995 25.9557C161.055 25.9751 161.111 26.0055 161.161 26.0452C161.208 26.0858 161.245 26.1369 161.269 26.1943C161.296 26.2586 161.309 26.3273 161.31 26.3966V26.403ZM160.939 26.403C160.941 26.3817 160.938 26.3602 160.93 26.3403C160.923 26.3203 160.91 26.3024 160.894 26.288C160.856 26.2637 160.81 26.2525 160.765 26.2561H160.477V26.5628H160.765C160.882 26.5628 160.939 26.5095 160.939 26.403Z" fill="#1B8401"/>
</g>
<defs>
<clipPath id="clip0_2709_59319">
<rect width="162" height="63" fill="white"/>
</clipPath>
</defs>
</svg>
