<?xml version="1.0" encoding="utf-8"?>
<!-- Generator: Adobe Illustrator 21.0.2, SVG Export Plug-In . SVG Version: 6.00 Build 0)  -->
<svg version="1.0" id="Layer_1" xmlns="http://www.w3.org/2000/svg" xmlns:xlink="http://www.w3.org/1999/xlink" x="0px" y="0px"
	 viewBox="0 0 400 720" style="enable-background:new 0 0 400 720;" xml:space="preserve">
<style type="text/css">
	.st0{clip-path:url(#SVGID_2_);}
	.st1{fill:#FFFFFF;}
	.st2{fill:#00629B;}
	.st3{opacity:0.3;fill:#FFFFFF;}
	.st4{opacity:0.9;fill:#FFFFFF;}
	.st5{opacity:0.2;fill:#FFFFFF;}
	.st6{opacity:0.8;fill:#FFFFFF;}
	.st7{opacity:0.5;fill:#FFFFFF;}
	.st8{opacity:0.6;fill:#FFFFFF;}
	.st9{opacity:0.5;fill:#F8F8F8;}
	.st10{opacity:0.3;fill:#D8DDE6;}
	.st11{opacity:0.8;fill:#D8DDE6;}
	.st12{opacity:0.7;fill:#D8DDE6;}
	.st13{fill:#D8DDE6;}
	.st14{fill:#F8F8F8;}
	.st15{opacity:0.4;fill:#FFFFFF;}
	.st16{opacity:0.6;fill:#F8F8F8;}
	.st17{opacity:0.5;fill:#D8DDE6;}
	.st18{opacity:0.2;fill:#D8DDE6;}
	.st19{opacity:0.4;fill:#D8DDE6;}
	.st20{opacity:0.3;fill:#F8F8F8;}
	.st21{opacity:0.6;fill:#D8DDE6;}
	.st22{opacity:9.000000e-02;fill:#D8DDE6;}
	.st23{opacity:0.9;fill:#D8DDE6;}
</style>
<g>
	<defs>
		<rect id="SVGID_1_" x="0" y="0" transform="matrix(-1 5.386923e-11 -5.386923e-11 -1 400 720)" width="400" height="720"/>
	</defs>
	<clipPath id="SVGID_2_">
		<use xlink:href="#SVGID_1_"  style="overflow:visible;"/>
	</clipPath>
	<g class="st0">
		<polygon class="st1" points="597,-390 597,-267.1 516,-328.6 		"/>
		<g>
			<g>
				<path class="st2" d="M-355.9,772.1c3.2,0,3.2-5,0-5C-359.1,767.1-359.1,772.1-355.9,772.1L-355.9,772.1z"/>
			</g>
		</g>
		<g>
			<g>
				<path class="st2" d="M734.7,772.1c3.2,0,3.2-5,0-5C731.5,767.1,731.5,772.1,734.7,772.1L734.7,772.1z"/>
			</g>
		</g>
		<g>
			<g>
				<path class="st2" d="M734.7,772.1c3.2,0,3.2-5,0-5C731.5,767.1,731.5,772.1,734.7,772.1L734.7,772.1z"/>
			</g>
		</g>
		<line class="st1" x1="759" y1="-513" x2="759" y2="945"/>
		<line class="st1" x1="435" y1="-513" x2="435" y2="945"/>
		<line class="st1" x1="111" y1="-513" x2="111" y2="945"/>
		<line class="st3" x1="-213" y1="-513" x2="-213" y2="945"/>
		<polygon class="st1" points="759,-513 759,-267.1 597,-390 		"/>
		<polygon class="st4" points="597,-390 597,-144.1 759,-267.1 		"/>
		<polygon class="st1" points="759,-267.1 759,-21.2 597,-144.1 		"/>
		<polygon class="st5" points="435,-513 435,-267.1 273,-390 		"/>
		<polygon class="st6" points="273,-390 273,-144.1 435,-267.1 		"/>
		<polygon class="st6" points="435,-267.1 435,-21.2 273,-144.1 		"/>
		<polygon class="st4" points="435,-513 435,-267.1 597,-390 		"/>
		<polygon class="st6" points="435,-267.1 435,-21.2 597,-144.1 		"/>
		<polygon class="st7" points="435,-21.2 435,224.7 597,101.8 		"/>
		<polygon class="st1" points="111,-513 111,-267.1 -51,-390 		"/>
		<polygon class="st4" points="111,-267.1 111,-21.2 273,-144.1 		"/>
		<polygon class="st8" points="435,-267.1 435,-21.2 597,-144.1 		"/>
		<polygon class="st9" points="597,101.8 597,347.7 435,224.8 		"/>
		<polygon class="st10" points="597,224.7 597,470.6 435,347.7 		"/>
		<polygon class="st11" points="759,470.6 759,716.5 597,593.6 		"/>
		<polygon class="st12" points="597,593.6 597,839.5 435,716.6 		"/>
		<polygon class="st13" points="435,470.6 435,716.5 273,593.6 		"/>
		<polygon class="st14" points="-51,347.7 -51,593.6 -213,470.7 		"/>
		<polygon class="st15" points="-213,-267.1 -213,-21.2 -51,-144.1 		"/>
		<polygon class="st7" points="-213,-21.2 -213,224.7 -51,101.8 		"/>
		<polygon class="st1" points="759,-513 759,-390 678,-451.5 		"/>
		<polygon class="st6" points="678,-574.5 678,-451.5 759,-513 		"/>
		<polygon class="st1" points="678,-451.5 678,-328.6 759,-390 		"/>
		<polygon class="st3" points="678,-205.6 678,-82.7 759,-144.1 		"/>
		<polygon class="st1" points="759,-390 759,-267.1 678,-328.6 		"/>
		<polygon class="st1" points="759,-267.1 759,-144.1 678,-205.6 		"/>
		<polygon class="st6" points="597,-513 597,-390 516,-451.5 		"/>
		<polygon class="st6" points="516,-574.5 516,-451.5 597,-513 		"/>
		<polygon class="st1" points="516,-451.5 516,-328.6 597,-390 		"/>
		<polygon class="st1" points="516,-328.6 516,-205.6 597,-267.1 		"/>
		<polygon class="st1" points="516,-205.6 516,-82.7 597,-144.1 		"/>
		<polygon class="st1" points="597,-513 597,-390 678,-451.5 		"/>
		<polygon class="st6" points="678,-574.5 678,-451.5 597,-513 		"/>
		<polygon class="st1" points="678,-451.5 678,-328.6 597,-390 		"/>
		<polygon class="st1" points="678,-328.6 678,-205.6 597,-267.1 		"/>
		<polygon class="st1" points="678,-205.6 678,-82.7 597,-144.1 		"/>
		<polygon class="st1" points="678,-82.7 678,40.3 597,-21.2 		"/>
		<polygon class="st1" points="597,-390 597,-267.1 678,-328.6 		"/>
		<polygon class="st1" points="192,-328.6 192,-205.6 273,-267.1 		"/>
		<polygon class="st1" points="435,-513 435,-390 354,-451.5 		"/>
		<polygon class="st1" points="354,-574.5 354,-451.5 435,-513 		"/>
		<polygon class="st1" points="354,-451.5 354,-328.6 435,-390 		"/>
		<polygon class="st1" points="354,-328.6 354,-205.6 435,-267.1 		"/>
		<polygon class="st7" points="354,-205.6 354,-82.7 435,-144.1 		"/>
		<polygon class="st4" points="435,-390 435,-267.1 354,-328.6 		"/>
		<polygon class="st7" points="435,-267.1 435,-144.1 354,-205.6 		"/>
		<polygon class="st1" points="435,-513 435,-390 516,-451.5 		"/>
		<polygon class="st1" points="516,-574.5 516,-451.5 435,-513 		"/>
		<polygon class="st1" points="516,-328.6 516,-205.6 435,-267.1 		"/>
		<polygon class="st7" points="516,-205.6 516,-82.7 435,-144.1 		"/>
		<polygon class="st1" points="435,-390 435,-267.1 516,-328.6 		"/>
		<polygon class="st1" points="273,-513 273,-390 354,-451.5 		"/>
		<polygon class="st1" points="354,-574.5 354,-451.5 273,-513 		"/>
		<polygon class="st4" points="273,-390 273,-267.1 354,-328.6 		"/>
		<polygon class="st4" points="273,-267.1 273,-144.1 354,-205.6 		"/>
		<polygon class="st16" points="759,-144.1 759,-21.2 678,-82.6 		"/>
		<polygon class="st8" points="678,-82.7 678,40.3 759,-21.2 		"/>
		<polygon class="st7" points="759,-21.2 759,101.8 678,40.3 		"/>
		<polygon class="st10" points="759,101.8 759,224.7 678,163.3 		"/>
		<polygon class="st17" points="759,224.7 759,347.7 678,286.2 		"/>
		<polygon class="st11" points="759,347.9 759,470.8 678,409.4 		"/>
		<polygon class="st3" points="516,163.2 516,286.2 435,224.7 		"/>
		<polygon class="st6" points="435,101.8 435,224.7 354,163.3 		"/>
		<polygon class="st3" points="354,163.2 354,286.2 273,224.7 		"/>
		<polygon class="st4" points="597,-144.1 597,-21.2 516,-82.6 		"/>
		<polygon class="st4" points="597,-267.1 597,-144.1 516,-205.6 		"/>
		<polygon class="st18" points="678,163.2 678,286.2 597,224.7 		"/>
		<polygon class="st16" points="354,286.2 354,409.1 273,347.7 		"/>
		<polygon class="st16" points="435,224.7 435,347.7 354,286.2 		"/>
		<polygon class="st19" points="192,286.2 192,409.1 111,347.7 		"/>
		<polygon class="st10" points="354,409.1 354,532.1 273,470.6 		"/>
		<polygon class="st19" points="192,409.1 192,532.1 111,470.6 		"/>
		<polygon class="st18" points="273,470.7 273,593.7 192,532.2 		"/>
		<polygon class="st14" points="-51,224.7 -51,347.7 -132,286.2 		"/>
		<polygon class="st7" points="-132,163.2 -132,286.2 -213,224.7 		"/>
		<polygon class="st16" points="192,286.2 192,409.1 111,347.7 		"/>
		<polygon class="st20" points="111,224.7 111,347.7 30,286.2 		"/>
		<polygon class="st7" points="111,101.8 111,224.7 30,163.3 		"/>
		<polygon class="st18" points="597,101.8 597,224.7 678,163.3 		"/>
		<polygon class="st3" points="678,40.3 678,163.2 759,101.8 		"/>
		<polygon class="st10" points="111,347.7 111,470.6 30,409.2 		"/>
		<polygon class="st18" points="111,470.7 111,593.7 30,532.2 		"/>
		<polygon class="st19" points="30,409.4 30,532.3 -51,470.9 		"/>
		<polygon class="st18" points="111,347.7 111,470.6 192,409.2 		"/>
		<polygon class="st14" points="678,409.1 678,532.1 759,470.6 		"/>
		<polygon class="st14" points="435,224.7 435,347.7 516,286.2 		"/>
		<polygon class="st17" points="435,347.7 435,470.6 516,409.2 		"/>
		<polygon class="st17" points="597,347.7 597,470.6 678,409.2 		"/>
		<polygon class="st18" points="597,224.7 597,347.7 678,286.2 		"/>
		<polygon class="st18" points="435,224.7 435,347.7 516,286.2 		"/>
		<polygon class="st18" points="435,101.8 435,224.7 516,163.3 		"/>
		<polygon class="st21" points="354,409.1 354,532.1 435,470.6 		"/>
		<polygon class="st22" points="354,286.2 354,409.1 435,347.7 		"/>
		<polygon class="st17" points="273,470.6 273,593.6 354,532.1 		"/>
		<polygon class="st19" points="597,470.6 597,593.6 678,532.1 		"/>
		<polygon class="st21" points="678,286.2 678,409.1 759,347.7 		"/>
		<polygon class="st11" points="435,593.6 435,716.5 516,655.1 		"/>
		<polygon class="st12" points="597,593.6 597,716.5 678,655.1 		"/>
		<polygon class="st17" points="678,409.1 678,532.1 759,470.6 		"/>
		<polygon class="st12" points="435,470.6 435,593.6 516,532.1 		"/>
		<polygon class="st19" points="516,409.4 516,532.3 597,470.9 		"/>
		<polygon class="st19" points="192,532.1 192,655.1 273,593.6 		"/>
		<polygon class="st11" points="273,716.5 273,839.5 354,778 		"/>
		<polygon class="st12" points="516,532.1 516,655.1 597,593.6 		"/>
		<polygon class="st21" points="30,532.1 30,655.1 111,593.6 		"/>
		<polygon class="st17" points="30,409.1 30,532.1 111,470.6 		"/>
		<polygon class="st10" points="-51,470.6 -51,593.6 30,532.1 		"/>
		<polygon class="st18" points="-51,347.7 -51,470.6 30,409.2 		"/>
		<polygon class="st13" points="516,655.1 516,778 597,716.5 		"/>
		<polygon class="st21" points="678,778 678,901 759,839.5 		"/>
		<polygon class="st11" points="678,655.1 678,778 759,716.5 		"/>
		<polygon class="st13" points="435,716.5 435,839.5 516,778 		"/>
		<polygon class="st12" points="597,716.5 597,839.5 678,778 		"/>
		<polygon class="st13" points="354,655.1 354,778 435,716.5 		"/>
		<polygon class="st13" points="354,778 354,901 435,839.5 		"/>
		<polygon class="st13" points="273,839.5 273,962.4 354,901 		"/>
		<polygon class="st21" points="192,778 192,901 273,839.5 		"/>
		<polygon class="st17" points="192,778 192,901 273,839.5 		"/>
		<polygon class="st11" points="111,839.5 111,962.4 192,901 		"/>
		<polygon class="st11" points="111,716.5 111,839.5 192,778 		"/>
		<polygon class="st11" points="30,655.2 30,778.1 111,716.7 		"/>
		<polygon class="st19" points="111,593.6 111,716.5 192,655.1 		"/>
		<polygon class="st11" points="192,655.1 192,778 273,716.5 		"/>
		<polygon class="st13" points="273,593.7 273,716.6 354,655.2 		"/>
		<polygon class="st11" points="-51,839.5 -51,962.4 30,901 		"/>
		<polygon class="st21" points="-132,901 -132,1023.9 -51,962.5 		"/>
		<polygon class="st11" points="-132,778.2 -132,901.2 -51,839.7 		"/>
		<polygon class="st12" points="-51,593.7 -51,716.6 30,655.2 		"/>
		<polygon class="st11" points="-51,716.5 -51,839.5 30,778 		"/>
		<polygon class="st11" points="30,778 30,901 111,839.5 		"/>
		<polygon class="st17" points="-213,839.5 -213,962.4 -132,901 		"/>
		<polygon class="st21" points="435,839.5 435,962.4 516,901 		"/>
		<polygon class="st21" points="597,839.5 597,962.4 678,901 		"/>
		<polygon class="st21" points="678,901 678,1023.9 759,962.5 		"/>
		<polygon class="st21" points="516,901 516,1023.9 597,962.5 		"/>
		<polygon class="st21" points="516,778 516,901 597,839.5 		"/>
		<polygon class="st19" points="192,409.1 192,532.1 273,470.6 		"/>
		<polygon class="st18" points="-51,224.7 -51,347.7 30,286.2 		"/>
		<polygon class="st7" points="-132,163.2 -132,286.2 -51,224.7 		"/>
		<polygon class="st5" points="-132,286.2 -132,409.1 -51,347.7 		"/>
		<polygon class="st7" points="-213,224.7 -213,347.7 -132,286.2 		"/>
		<polygon class="st14" points="192,286.2 192,409.1 273,347.7 		"/>
		<polygon class="st18" points="111,470.7 111,593.7 192,532.2 		"/>
		<polygon class="st18" points="30,286.2 30,409.1 111,347.7 		"/>
		<polygon class="st14" points="111,224.7 111,347.7 192,286.2 		"/>
		<polygon class="st8" points="597,-21.2 597,101.8 516,40.3 		"/>
		<polygon class="st18" points="597,101.8 597,224.7 516,163.3 		"/>
		<polygon class="st16" points="678,40.3 678,163.2 597,101.8 		"/>
		<polygon class="st7" points="597,-21.2 597,101.8 678,40.3 		"/>
		<polygon class="st5" points="435,-144.1 435,-21.2 354,-82.6 		"/>
		<polygon class="st6" points="435,-21.2 435,101.8 354,40.3 		"/>
		<polygon class="st6" points="354,40.3 354,163.2 273,101.8 		"/>
		<polygon class="st6" points="354,-82.7 354,40.3 435,-21.2 		"/>
		<polygon class="st6" points="354,40.3 354,163.2 435,101.8 		"/>
		<polygon class="st1" points="435,-144.1 435,-21.2 516,-82.6 		"/>
		<polygon class="st1" points="597,-144.1 597,-21.2 678,-82.6 		"/>
		<polygon class="st6" points="516,-82.7 516,40.3 435,-21.2 		"/>
		<polygon class="st6" points="273,-144.1 273,-21.2 354,-82.6 		"/>
		<polygon class="st7" points="354,-82.7 354,40.3 273,-21.2 		"/>
		<polygon class="st19" points="435,347.7 435,470.6 354,409.2 		"/>
		<polygon class="st14" points="435,470.6 435,593.6 354,532.1 		"/>
		<polygon class="st21" points="435,593.6 435,716.5 354,655.1 		"/>
		<polygon class="st18" points="30,532.1 30,655.1 -51,593.6 		"/>
		<polygon class="st11" points="-132,655.1 -132,778.1 -51,716.6 		"/>
		<polygon class="st17" points="-213,593.6 -213,716.6 -132,655.1 		"/>
		<polygon class="st11" points="-213,716.7 -213,839.6 -132,778.2 		"/>
		<polygon class="st11" points="-132,655.1 -132,778.1 -213,716.6 		"/>
		<polygon class="st13" points="516,655.1 516,778 435,716.5 		"/>
		<polygon class="st17" points="516,778 516,901 435,839.5 		"/>
		<polygon class="st17" points="678,778 678,901 597,839.5 		"/>
		<polygon class="st11" points="273,839.5 273,962.4 192,901 		"/>
		<polygon class="st21" points="435,839.5 435,962.4 354,901 		"/>
		<polygon class="st17" points="597,839.5 597,962.4 516,901 		"/>
		<polygon class="st17" points="759,839.5 759,962.4 678,901 		"/>
		<polygon class="st13" points="759,593.6 759,716.6 678,655.1 		"/>
		<polygon class="st13" points="759,716.5 759,839.5 678,778 		"/>
		<polygon class="st17" points="678,655.1 678,778 597,716.5 		"/>
		<polygon class="st17" points="516,901 516,1023.9 435,962.5 		"/>
		<polygon class="st21" points="354,901 354,1023.9 435,962.5 		"/>
		<polygon class="st13" points="192,901 192,1023.9 273,962.5 		"/>
		<polygon class="st17" points="30,901 30,1023.9 111,962.5 		"/>
		<polygon class="st13" points="354,901 354,1023.9 273,962.5 		"/>
		<polygon class="st23" points="192,901 192,1023.9 111,962.5 		"/>
		<polygon class="st17" points="30,901 30,1023.9 -51,962.5 		"/>
		<polygon class="st17" points="678,901 678,1023.9 597,962.5 		"/>
		<line class="st7" x1="759" y1="-513" x2="759" y2="945"/>
		<line class="st7" x1="435" y1="-513" x2="435" y2="945"/>
		<polygon class="st13" points="678,778 678,901 759,839.5 		"/>
		<polygon class="st13" points="435,839.5 435,962.4 516,901 		"/>
		<polygon class="st13" points="597,839.5 597,962.4 678,901 		"/>
		<polygon class="st17" points="678,901 678,1023.9 759,962.5 		"/>
		<polygon class="st17" points="516,901 516,1023.9 597,962.5 		"/>
		<polygon class="st13" points="516,778 516,901 597,839.5 		"/>
		<polygon class="st13" points="516,778 516,901 435,839.5 		"/>
		<polygon class="st13" points="678,778 678,901 597,839.5 		"/>
		<polygon class="st13" points="435,839.5 435,962.4 354,901 		"/>
		<polygon class="st13" points="597,839.5 597,962.4 516,901 		"/>
		<polygon class="st13" points="759,839.5 759,962.4 678,901 		"/>
		<polygon class="st17" points="516,901 516,1023.9 435,962.5 		"/>
		<polygon class="st17" points="354,901 354,1023.9 435,962.5 		"/>
		<polygon class="st19" points="678,901 678,1023.9 597,962.5 		"/>
		<polygon class="st11" points="111,839.5 111,962.4 30,901 		"/>
		<polygon class="st11" points="354,778 354,901 273,839.5 		"/>
		<polygon class="st11" points="192,778 192,901 111,839.5 		"/>
		<polygon class="st11" points="30,778 30,901 -51,839.5 		"/>
		<polygon class="st11" points="-132,778 -132,901 -213,839.5 		"/>
		<polygon class="st11" points="30,655.2 30,778.1 -51,716.7 		"/>
		<polygon class="st13" points="435,716.5 435,839.5 354,778 		"/>
		<polygon class="st11" points="273,716.5 273,839.5 192,778 		"/>
		<polygon class="st13" points="111,716.5 111,839.5 30,778 		"/>
		<polygon class="st12" points="273,593.6 273,716.5 192,655.1 		"/>
		<polygon class="st11" points="192,655.1 192,778 111,716.5 		"/>
		<polygon class="st21" points="111,593.6 111,716.5 30,655.1 		"/>
		<polygon class="st18" points="192,532.1 192,655.1 111,593.6 		"/>
		<polygon class="st21" points="-132,532.1 -132,655.1 -51,593.6 		"/>
		<polygon class="st11" points="-51,593.6 -51,716.5 -132,655.1 		"/>
		<polygon class="st18" points="-132,532.1 -132,655.1 -213,593.6 		"/>
		<polygon class="st17" points="-51,470.6 -51,593.6 -132,532.1 		"/>
		<polygon class="st12" points="435,470.6 435,593.6 354,532.1 		"/>
		<polygon class="st12" points="516,532.2 516,655.2 435,593.7 		"/>
		<polygon class="st13" points="597,716.5 597,839.5 516,778 		"/>
		<polygon class="st17" points="354,655.1 354,778 273,716.5 		"/>
		<polygon class="st21" points="354,655.1 354,778 273,716.5 		"/>
		<polygon class="st17" points="678,409.1 678,532.1 597,470.6 		"/>
		<polygon class="st18" points="678,286.2 678,409.1 597,347.7 		"/>
		<polygon class="st17" points="516,409.4 516,532.3 435,470.9 		"/>
		<polygon class="st17" points="597,470.8 597,593.8 516,532.3 		"/>
		<polygon class="st6" points="273,-21.2 273,101.8 354,40.3 		"/>
		<polygon class="st7" points="273,101.8 273,224.7 354,163.3 		"/>
		<polygon class="st1" points="273,-513 273,-390 192,-451.5 		"/>
		<polygon class="st1" points="192,-574.5 192,-451.5 273,-513 		"/>
		<polygon class="st1" points="192,-451.5 192,-328.6 273,-390 		"/>
		<polygon class="st4" points="516,-82.7 516,40.3 597,-21.2 		"/>
		<polygon class="st4" points="273,-390 273,-267.1 192,-328.6 		"/>
		<polygon class="st4" points="273,-267.1 273,-144.1 192,-205.6 		"/>
		<polygon class="st6" points="111,-513 111,-390 30,-451.5 		"/>
		<polygon class="st1" points="30,-574.5 30,-451.5 111,-513 		"/>
		<polygon class="st1" points="30,-328.6 30,-205.6 111,-267.1 		"/>
		<polygon class="st1" points="-51,-390 -51,-267.1 30,-328.6 		"/>
		<polygon class="st6" points="-132,-328.6 -132,-205.6 -51,-267.1 		"/>
		<polygon class="st6" points="30,-205.6 30,-82.7 111,-144.1 		"/>
		<polygon class="st1" points="111,-390 111,-267.1 30,-328.6 		"/>
		<polygon class="st6" points="111,-267.1 111,-144.1 30,-205.6 		"/>
		<polygon class="st1" points="111,-513 111,-390 192,-451.5 		"/>
		<polygon class="st1" points="192,-574.5 192,-451.5 111,-513 		"/>
		<polygon class="st1" points="192,-451.5 192,-328.6 111,-390 		"/>
		<polygon class="st1" points="192,-328.6 192,-205.6 111,-267.1 		"/>
		<polygon class="st1" points="111,-267.1 111,-144.1 192,-205.6 		"/>
		<polygon class="st1" points="111,-390 111,-267.1 192,-328.6 		"/>
		<polygon class="st1" points="-51,-513 -51,-390 -132,-451.5 		"/>
		<polygon class="st1" points="-51,-390 -51,-267.1 -132,-328.6 		"/>
		<polygon class="st1" points="-51,-267.1 -51,-144.1 -132,-205.6 		"/>
		<polygon class="st1" points="-132,-574.5 -132,-451.5 -51,-513 		"/>
		<polygon class="st1" points="-132,-451.5 -132,-328.6 -51,-390 		"/>
		<polygon class="st1" points="-132,-205.6 -132,-82.7 -51,-144.1 		"/>
		<polygon class="st14" points="192,163.2 192,286.2 111,224.7 		"/>
		<polygon class="st8" points="273,101.8 273,224.7 192,163.3 		"/>
		<polygon class="st7" points="192,40.3 192,163.2 111,101.8 		"/>
		<polygon class="st5" points="192,163.2 192,286.2 111,224.7 		"/>
		<polygon class="st5" points="30,163.2 30,286.2 -51,224.7 		"/>
		<polygon class="st5" points="-51,224.7 -51,347.7 -132,286.2 		"/>
		<polygon class="st5" points="-132,286.2 -132,409.1 -213,347.7 		"/>
		<polygon class="st18" points="30,286.2 30,409.1 -51,347.7 		"/>
		<polygon class="st12" points="-51,716.5 -51,839.5 -132,778 		"/>
		<polygon class="st11" points="-51,839.5 -51,962.4 -132,901 		"/>
		<polygon class="st17" points="-132,901 -132,1023.9 -213,962.5 		"/>
		<polygon class="st1" points="-51,-513 -51,-390 30,-451.5 		"/>
		<polygon class="st1" points="30,-574.5 30,-451.5 -51,-513 		"/>
		<polygon class="st7" points="30,-451.5 30,-328.6 -51,-390 		"/>
		<polygon class="st1" points="30,-328.6 30,-205.6 -51,-267.1 		"/>
		<polygon class="st6" points="30,-205.6 30,-82.7 -51,-144.1 		"/>
		<polygon class="st1" points="-132,-205.6 -132,-82.7 -213,-144.1 		"/>
		<polygon class="st1" points="-51,-267.1 -51,-144.1 30,-205.6 		"/>
		<polygon class="st7" points="-213,-513 -213,-390 -132,-451.5 		"/>
		<polygon class="st1" points="-132,-574.5 -132,-451.5 -213,-513 		"/>
		<polygon class="st1" points="-132,-451.5 -132,-328.6 -213,-390 		"/>
		<polygon class="st1" points="-132,-328.6 -132,-205.6 -213,-267.1 		"/>
		<polygon class="st1" points="-213,-390 -213,-267.1 -132,-328.6 		"/>
		<polygon class="st1" points="-213,-267.1 -213,-144.1 -132,-205.6 		"/>
		<polygon class="st7" points="192,40.3 192,163.2 273,101.8 		"/>
		<polygon class="st16" points="192,163.2 192,286.2 273,224.7 		"/>
		<polygon class="st5" points="30,163.2 30,286.2 111,224.7 		"/>
		<polygon class="st18" points="678,163.2 678,286.2 759,224.7 		"/>
		<polygon class="st6" points="111,-144.1 111,-21.2 30,-82.6 		"/>
		<polygon class="st6" points="30,-82.7 30,40.3 111,-21.2 		"/>
		<polygon class="st6" points="192,-82.7 192,40.3 273,-21.2 		"/>
		<polygon class="st6" points="30,40.3 30,163.2 111,101.8 		"/>
		<polygon class="st16" points="192,286.2 192,409.1 273,347.7 		"/>
		<polygon class="st16" points="273,224.7 273,347.7 354,286.2 		"/>
		<polygon class="st3" points="354,163.2 354,286.2 435,224.7 		"/>
		<polygon class="st18" points="-132,409.1 -132,532.1 -51,470.6 		"/>
		<polygon class="st7" points="192,40.3 192,163.2 273,101.8 		"/>
		<polygon class="st5" points="111,-21.2 111,101.8 30,40.3 		"/>
		<polygon class="st6" points="30,40.3 30,163.2 -51,101.8 		"/>
		<polygon class="st6" points="192,40.3 192,163.2 111,101.8 		"/>
		<polygon class="st6" points="111,-21.2 111,101.8 192,40.3 		"/>
		<polygon class="st6" points="-51,-144.1 -51,-21.2 -132,-82.6 		"/>
		<polygon class="st15" points="273,-144.1 273,-21.2 192,-82.6 		"/>
		<polygon class="st6" points="273,-21.2 273,101.8 192,40.3 		"/>
		<polygon class="st6" points="192,-82.7 192,40.3 111,-21.2 		"/>
		<polygon class="st6" points="354,-328.6 354,-205.6 273,-267.1 		"/>
		<polygon class="st1" points="-132,-82.7 -132,40.3 -51,-21.2 		"/>
		<polygon class="st7" points="-51,-21.2 -51,101.8 -132,40.3 		"/>
		<polygon class="st6" points="-51,101.8 -51,224.7 -132,163.3 		"/>
		<polygon class="st6" points="-51,-144.1 -51,-21.2 30,-82.6 		"/>
		<polygon class="st6" points="30,-82.7 30,40.3 -51,-21.2 		"/>
		<polygon class="st7" points="-51,-21.2 -51,101.8 30,40.3 		"/>
		<polygon class="st7" points="-51,101.8 -51,224.7 30,163.3 		"/>
		<polygon class="st7" points="111,101.8 111,224.7 192,163.3 		"/>
		<polygon class="st1" points="-213,-144.1 -213,-21.2 -132,-82.6 		"/>
		<polygon class="st1" points="-132,-82.7 -132,40.3 -213,-21.2 		"/>
		<polygon class="st1" points="-213,-21.2 -213,101.8 -132,40.3 		"/>
		<polygon class="st16" points="273,224.7 273,347.7 192,286.2 		"/>
	</g>
</g>
</svg>
