<?xml version="1.0" encoding="UTF-8"?>
<svg width="21px" height="21px" viewBox="0 0 21 21" version="1.1" xmlns="http://www.w3.org/2000/svg" xmlns:xlink="http://www.w3.org/1999/xlink">
    <title>03-action/006-search</title>
    <g id="Redlines" stroke="none" stroke-width="1" fill="none" fill-rule="evenodd">
        <g id="Icon-Asset-Sheet" transform="translate(-52.000000, -250.000000)" fill="#FFFFFF">
            <g id="Group-2" transform="translate(50.000000, 248.000000)">
                <path d="M14.7074402,2 C19.2402431,2 22.91154,5.74991778 22.91154,10.3700301 C22.91154,14.9907601 19.2405495,18.7400603 14.7074402,18.7400603 C12.7147158,18.7400603 10.8343019,18.0126429 9.36177336,16.7205047 L3.55841803,22.6392987 C3.20104627,23.0024612 2.6197525,23.0024612 2.26338975,22.638467 C1.91216787,22.2797237 1.91216787,21.7012207 2.26360306,21.3422596 L8.12315781,15.3652238 C7.07921202,13.9360224 6.50334044,12.1976817 6.50334044,10.3700301 C6.50334044,5.83516773 10.0393394,2.13917287 14.4564896,2.00383934 L14.7074402,2 Z M14.7074402,3.8426545 C11.1850531,3.8426545 8.32647372,6.76271938 8.32647372,10.3700301 C8.32647372,13.8995083 11.0618075,16.7701472 14.4786627,16.8932895 L14.7074402,16.8974058 C18.2295646,16.8974058 21.0884067,13.9776105 21.0884067,10.3700301 C21.0884067,6.76305015 18.2292402,3.8426545 14.7074402,3.8426545 Z" id="03-action/006-search"></path>
            </g>
        </g>
    </g>
</svg>