<svg class="generic-bank-icon" xmlns="http://www.w3.org/2000/svg" viewBox="0 0 35 32" width="40px" height="40px" fill="#009CDE"><path class="generic-bank-icon-stroke" d="M32.71,10,17.23,2.79a.5.5,0,0,0-.44,0L2.32,10.05a.5.5,0,0,0,.22.95H6.14V21.89a.5.5,0,1,0,1,0V11H12.8V24a.5.5,0,0,0,.5.5l16.37.09v2.12a.5.5,0,0,0,.5.5h1.05v1.33H3V27.18H4.05a.5.5,0,0,0,.5-.5V24.85H9.88a.5.5,0,0,0,0-1H4.05a.5.5,0,0,0-.5.5v1.83H2.5a.5.5,0,0,0-.5.5V29a.5.5,0,0,0,.5.5H31.72a.5.5,0,0,0,.5-.5V26.68a.5.5,0,0,0-.5-.5H30.67V24.06a.5.5,0,0,0-.5-.5L13.8,23.46V11H19V22a.5.5,0,0,0,1,0V10.5a.5.5,0,0,0-.5-.5H4.66L17,3.8,30.25,10H27.5a.5.5,0,0,0-.5.5V22a.5.5,0,0,0,1,0V11h4.5a.5.5,0,0,0,.21-1Z"></path></svg>